<!DOCTYPE svg PUBLIC "-//W3C//DTD SVG 1.1//EN" "http://www.w3.org/Graphics/SVG/1.1/DTD/svg11.dtd">

<!-- Uploaded to: SVG Repo, www.svgrepo.com, Transformed by: SVG Repo Mixer Tools -->
<svg width="800px" height="800px" viewBox="-4.8 -4.8 57.60 57.60" id="Layer_2" data-name="Layer 2" xmlns="http://www.w3.org/2000/svg" fill="#008000" transform="rotate(0)matrix(1, 0, 0, 1, 0, 0)" stroke="#008000" stroke-width="2.4">

<g id="SVGRepo_bgCarrier" stroke-width="0"/>

<g id="SVGRepo_tracerCarrier" stroke-linecap="round" stroke-linejoin="round" stroke="#CCCCCC" stroke-width="0.288"/>

<g id="SVGRepo_iconCarrier">

<defs>

<style>.cls-1{fill:none;stroke:#00cc00;stroke-linecap:round;stroke-linejoin:round;}</style>

</defs>

<line class="cls-1" x1="5.5" y1="17.89" x2="42.5" y2="17.89"/>

<line class="cls-1" x1="5.5" y1="30.11" x2="42.5" y2="30.11"/>

<line class="cls-1" x1="30.11" y1="5.5" x2="30.11" y2="42.5"/>

<line class="cls-1" x1="17.89" y1="5.5" x2="17.89" y2="42.5"/>

<path class="cls-1" d="M38.82,22.76a2.52,2.52,0,0,0-2.65-2.51,2.61,2.61,0,0,0-2.38,2.66v2.33a2.52,2.52,0,0,0,2.52,2.51h0a2.52,2.52,0,0,0,2.51-2.51V22.76"/>



<path class="cls-1" d="M21.48,7v5A2.51,2.51,0,0,0,24,14.45h0a2.51,2.51,0,0,0,2.52-2.51V7"/>

<path class="cls-1" d="M21.49,27.75v-7.5h1.27A3.75,3.75,0,0,1,26.51,24h0a3.75,3.75,0,0,1-3.75,3.75Z"/>

<path class="cls-1" d="M14.2,7H11.06A1.88,1.88,0,0,0,9.18,8.83h0a1.88,1.88,0,0,0,1.88,1.87h.63"/>

<path class="cls-1" d="M11.69,10.7h.64a1.87,1.87,0,0,1,1.87,1.88h0a1.87,1.87,0,0,1-1.87,1.87H9.18"/>



</g>

</svg>